<?xml version="1.0" encoding="iso-8859-1"?>
<!-- Generator: Adobe Illustrator 18.1.1, SVG Export Plug-In . SVG Version: 6.00 Build 0)  -->
<svg version="1.1" id="Capa_1" xmlns="http://www.w3.org/2000/svg" xmlns:xlink="http://www.w3.org/1999/xlink" x="0px" y="0px"
	 viewBox="0 0 289.34 289.34" style="enable-background:new 0 0 289.34 289.34;" xml:space="preserve">
<g>
	<path id="path5660" d="M4.878,0.006c-3.12-0.14-5.494,2.765-4.736,5.795l14.143,56.568c0.881,3.518,5.261,4.731,7.826,2.168
		l17.68-17.678l51.344,51.344c4.713,4.908,11.978-2.358,7.07-7.07L46.861,39.789l17.678-17.68c2.563-2.565,1.35-6.945-2.168-7.826
		L5.8,0.141C5.498,0.065,5.189,0.02,4.878,0.006z M11.083,11.082l41.027,10.256L21.339,52.11L11.083,11.082z M21.708,19.133
		c-3.053-0.122-3.616,4.292-0.631,4.941l18.385,4.244c3.249,0.75,4.374-4.123,1.125-4.873l-18.385-4.242
		C22.041,19.163,21.875,19.14,21.708,19.133z M194.617,189.617c-4.488,0.003-6.7,5.458-3.482,8.586l51.344,51.346L224.8,267.227
		c-2.563,2.565-1.35,6.945,2.168,7.826l56.57,14.143c3.417,0.853,6.511-2.241,5.658-5.658l-14.143-56.568
		c-0.509-2.034-2.312-3.48-4.408-3.533c-1.278-0.032-2.514,0.461-3.418,1.365l-17.678,17.678l-51.346-51.346
		C197.263,190.164,195.968,189.617,194.617,189.617z M267.999,237.229l10.256,41.025l-41.027-10.256L267.999,237.229z
		 M249.382,260.949c-3.053-0.122-3.616,4.292-0.631,4.941l18.385,4.242c3.302,0.839,4.461-4.177,1.125-4.871l-18.385-4.242
		C249.714,260.98,249.549,260.956,249.382,260.949z"/>
</g>
<g>
</g>
<g>
</g>
<g>
</g>
<g>
</g>
<g>
</g>
<g>
</g>
<g>
</g>
<g>
</g>
<g>
</g>
<g>
</g>
<g>
</g>
<g>
</g>
<g>
</g>
<g>
</g>
<g>
</g>
</svg>
